<svg xmlns="http://www.w3.org/2000/svg" width="107.979" height="112.773" viewBox="0 0 107.979 112.773"><defs><style>.a{fill:#fff;}</style></defs><g transform="translate(-1048.704 -865.237)"><g transform="translate(1048.704 865.237)"><path class="a" d="M1150.121,957.575h-94.851a6.421,6.421,0,0,1-6.417-6.417V884.7a6.421,6.421,0,0,1,6.417-6.417H1150.2a6.421,6.421,0,0,1,6.417,6.417v66.454A6.438,6.438,0,0,1,1150.121,957.575Zm-94.851-75.9a3.038,3.038,0,0,0-3.024,3.024v66.454a3.038,3.038,0,0,0,3.024,3.024H1150.2a3.038,3.038,0,0,0,3.024-3.024V884.7a3.038,3.038,0,0,0-3.024-3.024Z" transform="translate(-1048.743 -868.662)"/><path class="a" d="M1150.082,957.646h-94.851a6.535,6.535,0,0,1-6.527-6.527V884.664a6.535,6.535,0,0,1,6.527-6.527h94.924a6.535,6.535,0,0,1,6.527,6.527v66.454a6.455,6.455,0,0,1-1.923,4.615A6.6,6.6,0,0,1,1150.082,957.646Zm-94.851-79.288a6.313,6.313,0,0,0-6.306,6.306v66.454a6.313,6.313,0,0,0,6.306,6.306h94.851a6.375,6.375,0,0,0,4.523-1.849,6.236,6.236,0,0,0,1.857-4.457V884.664a6.313,6.313,0,0,0-6.306-6.306Zm94.924,75.9h-94.924a3.148,3.148,0,0,1-3.135-3.135V884.664a3.148,3.148,0,0,1,3.135-3.135h94.924a3.148,3.148,0,0,1,3.135,3.135v66.454a3.148,3.148,0,0,1-3.135,3.135Zm-94.924-72.5a2.927,2.927,0,0,0-2.913,2.913v66.454a2.927,2.927,0,0,0,2.913,2.913h94.924a2.927,2.927,0,0,0,2.913-2.913V884.664a2.927,2.927,0,0,0-2.913-2.913Z" transform="translate(-1048.704 -868.622)"/><path class="a" d="M1066.557,930.747a1.468,1.468,0,0,1-1.18-.516,1.648,1.648,0,0,1,0-2.36l9-8.925a6.549,6.549,0,0,1,9.072,0l5.606,5.605a3.116,3.116,0,0,0,4.352,0l13.276-13.276a6.41,6.41,0,0,1,9.072,0l10.178,10.178a3.117,3.117,0,0,0,4.352,0l18.144-18.144a1.669,1.669,0,0,1,2.36,2.36l-18.144,18.144a6.41,6.41,0,0,1-9.072,0l-10.252-10.178a3.117,3.117,0,0,0-4.352,0l-13.276,13.276a6.41,6.41,0,0,1-9.072,0l-5.605-5.605a3.117,3.117,0,0,0-4.352,0l-8.925,9A1.675,1.675,0,0,1,1066.557,930.747Z" transform="translate(-1052.949 -875.098)"/><path class="a" d="M1066.518,930.818a1.576,1.576,0,0,1-1.263-.553,1.761,1.761,0,0,1,0-2.512l9-8.925a6.659,6.659,0,0,1,9.228,0l5.606,5.605a2.906,2.906,0,0,0,2.07.853,3.1,3.1,0,0,0,2.128-.855l13.274-13.274a6.521,6.521,0,0,1,9.229,0l10.178,10.178a3.006,3.006,0,0,0,4.2,0l18.144-18.144a1.78,1.78,0,0,1,2.517,2.517l-18.144,18.144a6.521,6.521,0,0,1-9.229,0L1113.2,913.675a2.906,2.906,0,0,0-2.07-.853,3.1,3.1,0,0,0-2.128.855l-13.274,13.274a6.521,6.521,0,0,1-9.229,0l-5.605-5.605a3.006,3.006,0,0,0-4.2,0l-8.924,9A1.778,1.778,0,0,1,1066.518,930.818Zm12.354-13.626a6.324,6.324,0,0,0-4.458,1.793l-9,8.925a1.541,1.541,0,0,0,0,2.2l.008.009a1.359,1.359,0,0,0,1.094.475,1.556,1.556,0,0,0,1.1-.41l8.924-9a3.228,3.228,0,0,1,4.508,0l5.605,5.605a6.3,6.3,0,0,0,8.916,0l13.276-13.276a3.321,3.321,0,0,1,2.282-.917,3.125,3.125,0,0,1,2.226.917L1123.61,923.7a6.3,6.3,0,0,0,8.916,0l18.144-18.144a1.558,1.558,0,1,0-2.2-2.2l-18.144,18.144a3.228,3.228,0,0,1-4.508,0l-10.178-10.178a6.3,6.3,0,0,0-8.916,0l-13.276,13.276a3.321,3.321,0,0,1-2.282.917,3.126,3.126,0,0,1-2.226-.917l-5.605-5.605A6.325,6.325,0,0,0,1078.872,917.192Z" transform="translate(-1052.91 -875.059)"/><path class="a" d="M1174.085,952.38H1159.85a1.7,1.7,0,0,1,0-3.393h14.235a1.7,1.7,0,0,1,0,3.393Z" transform="translate(-1077.428 -887.216)"/><path class="a" d="M1174.046,952.451h-14.235a1.807,1.807,0,0,1,0-3.614h14.235a1.807,1.807,0,0,1,0,3.614Zm-14.235-3.393a1.586,1.586,0,0,0,0,3.171h14.235a1.586,1.586,0,0,0,0-3.171Z" transform="translate(-1077.388 -887.177)"/><path class="a" d="M1170.7,965.28h-23.75a1.7,1.7,0,1,1,0-3.393h23.75a1.7,1.7,0,0,1,0,3.393Z" transform="translate(-1074.042 -890.602)"/><path class="a" d="M1170.661,965.351h-23.75a1.807,1.807,0,0,1,0-3.614h23.75a1.807,1.807,0,0,1,0,3.614Zm-23.75-3.393a1.586,1.586,0,0,0,0,3.171h23.75a1.586,1.586,0,0,0,0-3.171Z" transform="translate(-1074.003 -890.562)"/><path class="a" d="M1121.25,878.294a1.669,1.669,0,0,1-1.7-1.7v-9.515a1.7,1.7,0,1,1,3.393,0V876.6A1.669,1.669,0,0,1,1121.25,878.294Z" transform="translate(-1067.298 -865.276)"/><path class="a" d="M1121.211,878.366a1.788,1.788,0,0,1-1.807-1.807v-9.515a1.807,1.807,0,1,1,3.614,0v9.515A1.788,1.788,0,0,1,1121.211,878.366Zm0-12.907a1.551,1.551,0,0,0-1.586,1.586v9.515a1.586,1.586,0,1,0,3.172,0v-9.515A1.551,1.551,0,0,0,1121.211,865.458Z" transform="translate(-1067.258 -865.237)"/><path class="a" d="M1121.25,996.455a1.669,1.669,0,0,1-1.7-1.7V982.883a1.7,1.7,0,0,1,3.393,0v11.875A1.669,1.669,0,0,1,1121.25,996.455Z" transform="translate(-1067.298 -895.667)"/><path class="a" d="M1121.211,996.526a1.788,1.788,0,0,1-1.807-1.807V982.844a1.807,1.807,0,0,1,3.614,0v11.875A1.788,1.788,0,0,1,1121.211,996.526Zm0-15.268a1.551,1.551,0,0,0-1.586,1.586v11.875a1.586,1.586,0,1,0,3.172,0V982.844A1.551,1.551,0,0,0,1121.211,981.258Z" transform="translate(-1067.258 -895.627)"/><path class="a" d="M1098.747,1012.551a1.685,1.685,0,0,1-1.4-.738,1.733,1.733,0,0,1,.369-2.36l16.6-11.875a1.689,1.689,0,1,1,1.991,2.729l-16.6,11.875A1.554,1.554,0,0,1,1098.747,1012.551Z" transform="translate(-1061.389 -899.888)"/><path class="a" d="M1098.708,1012.622a1.8,1.8,0,0,1-1.491-.784,1.848,1.848,0,0,1,.4-2.515l16.594-11.874a1.859,1.859,0,0,1,1.059-.326,1.763,1.763,0,0,1,1.456.722,1.848,1.848,0,0,1-.4,2.514l-16.594,11.874A1.685,1.685,0,0,1,1098.708,1012.622Zm16.557-15.278a1.635,1.635,0,0,0-.931.286L1097.74,1009.5a1.621,1.621,0,0,0-.343,2.207,1.581,1.581,0,0,0,1.311.69,1.431,1.431,0,0,0,.892-.347l16.6-11.876a1.621,1.621,0,0,0,.343-2.207A1.542,1.542,0,0,0,1115.265,997.344Z" transform="translate(-1061.35 -899.849)"/><path class="a" d="M1137.857,1012.566a1.483,1.483,0,0,1-.959-.3l-16.6-11.875a1.689,1.689,0,1,1,1.991-2.729l16.6,11.8a1.666,1.666,0,0,1,.369,2.36A1.9,1.9,0,0,1,1137.857,1012.566Z" transform="translate(-1067.309 -899.903)"/><path class="a" d="M1137.817,1012.637a1.583,1.583,0,0,1-1.025-.317l-16.593-11.873a1.794,1.794,0,0,1-.734-1.215,1.681,1.681,0,0,1,.341-1.3,1.817,1.817,0,0,1,1.471-.751,1.658,1.658,0,0,1,1.045.36l16.593,11.8a1.8,1.8,0,0,1,.734,1.216,1.681,1.681,0,0,1-.343,1.3A2.015,2.015,0,0,1,1137.817,1012.637ZM1121.276,997.4a1.592,1.592,0,0,0-1.291.659l0,.006a1.461,1.461,0,0,0-.3,1.134,1.573,1.573,0,0,0,.643,1.066l16.6,11.875a1.363,1.363,0,0,0,.894.274,1.792,1.792,0,0,0,1.316-.7,1.461,1.461,0,0,0,.3-1.133,1.573,1.573,0,0,0-.643-1.066l-16.6-11.805A1.438,1.438,0,0,0,1121.276,997.4Z" transform="translate(-1067.269 -899.863)"/></g></g></svg>