<svg xmlns="http://www.w3.org/2000/svg" width="28" height="28" viewBox="0 0 28 28"><defs><style>.a{fill:#fff;}</style></defs><path class="a" d="M14,28A14,14,0,0,1,8.55,1.1a14,14,0,0,1,10.9,25.8A13.912,13.912,0,0,1,14,28ZM10.73,7A3.734,3.734,0,0,0,7,10.73v6.216a3.735,3.735,0,0,0,3.73,3.73h6.216a3.734,3.734,0,0,0,3.73-3.73V10.73A3.734,3.734,0,0,0,16.946,7Zm6.216,12.433H10.73a2.49,2.49,0,0,1-2.486-2.487V10.73A2.489,2.489,0,0,1,10.73,8.243h6.216a2.489,2.489,0,0,1,2.486,2.486v6.216A2.49,2.49,0,0,1,16.946,19.433ZM13.864,10.7a3.12,3.12,0,1,0,.457.034A3.1,3.1,0,0,0,13.864,10.7Zm3.406-.884a.622.622,0,1,0,.622.622A.622.622,0,0,0,17.27,9.818Zm-3.4,5.858a1.865,1.865,0,0,1,0-3.73,1.9,1.9,0,0,1,.274.02,1.865,1.865,0,0,1-.273,3.71Z"/></svg>