<svg xmlns="http://www.w3.org/2000/svg" width="28" height="28" viewBox="0 0 28 28"><defs><style>.a{fill:#fff;}</style></defs><path class="a" d="M14,28A14,14,0,0,1,8.55,1.1a14,14,0,0,1,10.9,25.8A13.912,13.912,0,0,1,14,28ZM7.778,17.813h0a7.655,7.655,0,0,0,4.15,1.213,7.367,7.367,0,0,0,5.709-2.505,7.956,7.956,0,0,0,1.981-5.185c0-.115,0-.234-.008-.351a5.768,5.768,0,0,0,1.356-1.4,5.4,5.4,0,0,1-1.556.419A2.7,2.7,0,0,0,20.6,8.517a5.348,5.348,0,0,1-1.716.652A2.705,2.705,0,0,0,14.2,11.019a3.025,3.025,0,0,0,.067.619A7.7,7.7,0,0,1,8.7,8.809a2.707,2.707,0,0,0,.836,3.615,2.729,2.729,0,0,1-1.221-.343v.034a2.713,2.713,0,0,0,2.167,2.652,2.829,2.829,0,0,1-.711.092,3.37,3.37,0,0,1-.51-.042,2.709,2.709,0,0,0,2.527,1.875A5.389,5.389,0,0,1,8.43,17.847,5.51,5.51,0,0,1,7.778,17.813Z"/></svg>